<?xml version="1.0" encoding="UTF-8"?>
<!DOCTYPE svg PUBLIC "-//W3C//DTD SVG 1.1//EN" "http://www.w3.org/Graphics/SVG/1.1/DTD/svg11.dtd">
<svg version="1.2" width="90.17mm" height="31.75mm" viewBox="0 0 9017 3175" preserveAspectRatio="xMidYMid" fill-rule="evenodd" stroke-width="28.222" stroke-linejoin="round" xmlns="http://www.w3.org/2000/svg" xmlns:ooo="http://xml.openoffice.org/svg/export" xmlns:xlink="http://www.w3.org/1999/xlink" xmlns:presentation="http://sun.com/xmlns/staroffice/presentation" xmlns:smil="http://www.w3.org/2001/SMIL20/" xmlns:anim="urn:oasis:names:tc:opendocument:xmlns:animation:1.0" xml:space="preserve">
 <defs class="ClipPathGroup">
  <clipPath id="presentation_clip_path" clipPathUnits="userSpaceOnUse">
   <rect x="0" y="0" width="9017" height="3175"/>
  </clipPath>
  <clipPath id="presentation_clip_path_shrink" clipPathUnits="userSpaceOnUse">
   <rect x="9" y="3" width="8999" height="3169"/>
  </clipPath>
 </defs>
 <defs class="TextShapeIndex">
  <g ooo:slide="id1" ooo:id-list="id3 id4 id5 id6 id7 id8 id9 id10 id11 id12 id13 id14 id15 id16 id17 id18 id19 id20 id21 id22"/>
 </defs>
 <defs class="EmbeddedBulletChars">
  <g id="bullet-char-template-57356" transform="scale(0.00048828125,-0.00048828125)">
   <path d="M 580,1141 L 1163,571 580,0 -4,571 580,1141 Z"/>
  </g>
  <g id="bullet-char-template-57354" transform="scale(0.00048828125,-0.00048828125)">
   <path d="M 8,1128 L 1137,1128 1137,0 8,0 8,1128 Z"/>
  </g>
  <g id="bullet-char-template-10146" transform="scale(0.00048828125,-0.00048828125)">
   <path d="M 174,0 L 602,739 174,1481 1456,739 174,0 Z M 1358,739 L 309,1346 659,739 1358,739 Z"/>
  </g>
  <g id="bullet-char-template-10132" transform="scale(0.00048828125,-0.00048828125)">
   <path d="M 2015,739 L 1276,0 717,0 1260,543 174,543 174,936 1260,936 717,1481 1274,1481 2015,739 Z"/>
  </g>
  <g id="bullet-char-template-10007" transform="scale(0.00048828125,-0.00048828125)">
   <path d="M 0,-2 C -7,14 -16,27 -25,37 L 356,567 C 262,823 215,952 215,954 215,979 228,992 255,992 264,992 276,990 289,987 310,991 331,999 354,1012 L 381,999 492,748 772,1049 836,1024 860,1049 C 881,1039 901,1025 922,1006 886,937 835,863 770,784 769,783 710,716 594,584 L 774,223 C 774,196 753,168 711,139 L 727,119 C 717,90 699,76 672,76 641,76 570,178 457,381 L 164,-76 C 142,-110 111,-127 72,-127 30,-127 9,-110 8,-76 1,-67 -2,-52 -2,-32 -2,-23 -1,-13 0,-2 Z"/>
  </g>
  <g id="bullet-char-template-10004" transform="scale(0.00048828125,-0.00048828125)">
   <path d="M 285,-33 C 182,-33 111,30 74,156 52,228 41,333 41,471 41,549 55,616 82,672 116,743 169,778 240,778 293,778 328,747 346,684 L 369,508 C 377,444 397,411 428,410 L 1163,1116 C 1174,1127 1196,1133 1229,1133 1271,1133 1292,1118 1292,1087 L 1292,965 C 1292,929 1282,901 1262,881 L 442,47 C 390,-6 338,-33 285,-33 Z"/>
  </g>
  <g id="bullet-char-template-9679" transform="scale(0.00048828125,-0.00048828125)">
   <path d="M 813,0 C 632,0 489,54 383,161 276,268 223,411 223,592 223,773 276,916 383,1023 489,1130 632,1184 813,1184 992,1184 1136,1130 1245,1023 1353,916 1407,772 1407,592 1407,412 1353,268 1245,161 1136,54 992,0 813,0 Z"/>
  </g>
  <g id="bullet-char-template-8226" transform="scale(0.00048828125,-0.00048828125)">
   <path d="M 346,457 C 273,457 209,483 155,535 101,586 74,649 74,723 74,796 101,859 155,911 209,963 273,989 346,989 419,989 480,963 531,910 582,859 608,796 608,723 608,648 583,586 532,535 482,483 420,457 346,457 Z"/>
  </g>
  <g id="bullet-char-template-8211" transform="scale(0.00048828125,-0.00048828125)">
   <path d="M -4,459 L 1135,459 1135,606 -4,606 -4,459 Z"/>
  </g>
  <g id="bullet-char-template-61548" transform="scale(0.00048828125,-0.00048828125)">
   <path d="M 173,740 C 173,903 231,1043 346,1159 462,1274 601,1332 765,1332 928,1332 1067,1274 1183,1159 1299,1043 1357,903 1357,740 1357,577 1299,437 1183,322 1067,206 928,148 765,148 601,148 462,206 346,322 231,437 173,577 173,740 Z"/>
  </g>
 </defs>
 <g>
  <g id="id2" class="Master_Slide">
   <g id="bg-id2" class="Background"/>
   <g id="bo-id2" class="BackgroundObjects"/>
  </g>
 </g>
 <g class="SlideGroup">
  <g>
   <g id="container-id1">
    <g id="id1" class="Slide" clip-path="url(#presentation_clip_path)">
     <g class="Page">
      <g class="Group">
       <g class="com.sun.star.drawing.CustomShape">
        <g id="id3">
         <rect class="BoundingBox" stroke="none" fill="none" x="3222" y="937" width="2543" height="1273"/>
         <path fill="none" stroke="rgb(0,0,0)" d="M 4493,2208 L 3223,2208 3223,938 5763,938 5763,2208 4493,2208 Z"/>
        </g>
       </g>
       <g class="com.sun.star.drawing.LineShape">
        <g id="id4">
         <rect class="BoundingBox" stroke="none" fill="none" x="999" y="1423" width="2225" height="301"/>
         <path fill="none" stroke="rgb(0,0,0)" d="M 1000,1573 L 2943,1573"/>
         <path fill="rgb(0,0,0)" stroke="none" d="M 2923,1423 L 3223,1573 2923,1723 2923,1423 Z"/>
        </g>
       </g>
       <g class="com.sun.star.drawing.LineShape">
        <g id="id5">
         <rect class="BoundingBox" stroke="none" fill="none" x="5762" y="1423" width="2225" height="301"/>
         <path fill="none" stroke="rgb(0,0,0)" d="M 5763,1573 L 7706,1573"/>
         <path fill="rgb(0,0,0)" stroke="none" d="M 7686,1423 L 7986,1573 7686,1723 7686,1423 Z"/>
        </g>
       </g>
       <g class="Group">
        <g class="Group">
         <g class="com.sun.star.drawing.ClosedBezierShape">
          <g id="id6">
           <rect class="BoundingBox" stroke="none" fill="none" x="4030" y="1353" width="901" height="441"/>
           <path fill="rgb(255,255,255)" stroke="none" d="M 4481,1793 C 4331,1793 4181,1793 4031,1793 4031,1646 4031,1500 4031,1353 4331,1353 4630,1353 4930,1353 4930,1500 4930,1646 4930,1793 4780,1793 4631,1793 4481,1793 Z"/>
          </g>
         </g>
         <g class="com.sun.star.drawing.ClosedBezierShape">
          <g id="id7">
           <rect class="BoundingBox" stroke="none" fill="none" x="4030" y="1350" width="351" height="358"/>
           <path fill="rgb(0,0,0)" stroke="none" d="M 4379,1354 C 4379,1353 4378,1350 4373,1350 4372,1350 4372,1350 4366,1356 4355,1368 4343,1381 4332,1394 4327,1387 4305,1350 4250,1350 4141,1350 4031,1458 4031,1572 4031,1650 4085,1706 4165,1706 4186,1706 4208,1702 4225,1694 4250,1684 4260,1674 4269,1664 4273,1677 4285,1695 4291,1695 4294,1695 4294,1694 4294,1692 4295,1692 4301,1673 4302,1663 4305,1650 4309,1638 4312,1625 4313,1617 4316,1609 4318,1600 4323,1578 4325,1578 4352,1576 4354,1576 4359,1576 4359,1567 4359,1564 4358,1561 4354,1561 4343,1561 4313,1563 4302,1563 4287,1563 4249,1561 4234,1561 4229,1561 4222,1561 4222,1571 4222,1576 4227,1576 4238,1576 4247,1577 4252,1576 4264,1578 4277,1579 4278,1581 4278,1588 4278,1592 4274,1614 4269,1632 4255,1685 4192,1691 4174,1691 4127,1691 4076,1663 4076,1588 4076,1574 4080,1493 4132,1428 4158,1395 4206,1366 4255,1366 4305,1366 4333,1403 4333,1461 4333,1480 4332,1479 4332,1484 4332,1489 4337,1490 4340,1490 4345,1490 4345,1489 4348,1480 4359,1438 4369,1396 4379,1354 Z"/>
          </g>
         </g>
         <g class="com.sun.star.drawing.ClosedBezierShape">
          <g id="id8">
           <rect class="BoundingBox" stroke="none" fill="none" x="4440" y="1327" width="115" height="493"/>
           <path fill="rgb(0,0,0)" stroke="none" d="M 4554,1812 C 4554,1811 4554,1811 4545,1803 4485,1740 4469,1648 4469,1574 4469,1487 4488,1402 4548,1342 4554,1335 4554,1335 4554,1334 4554,1329 4552,1328 4550,1328 4544,1328 4501,1361 4471,1424 4446,1477 4441,1532 4441,1574 4441,1611 4446,1670 4473,1726 4502,1786 4544,1818 4550,1818 4552,1818 4554,1817 4554,1812 Z"/>
          </g>
         </g>
         <g class="com.sun.star.drawing.ClosedBezierShape">
          <g id="id9">
           <rect class="BoundingBox" stroke="none" fill="none" x="4608" y="1478" width="182" height="224"/>
           <path fill="rgb(0,0,0)" stroke="none" d="M 4775,1512 C 4761,1512 4751,1523 4751,1535 4751,1542 4755,1549 4766,1549 4777,1549 4789,1540 4789,1521 4789,1500 4768,1479 4730,1479 4666,1479 4647,1529 4647,1550 4647,1589 4684,1596 4698,1599 4724,1604 4750,1609 4750,1637 4750,1649 4738,1690 4680,1690 4673,1690 4635,1690 4624,1664 4642,1666 4654,1652 4654,1638 4654,1627 4646,1621 4636,1621 4624,1621 4608,1631 4608,1653 4608,1681 4636,1701 4678,1701 4758,1701 4777,1642 4777,1620 4777,1602 4768,1589 4762,1583 4748,1570 4734,1568 4713,1563 4695,1560 4675,1556 4675,1533 4675,1519 4688,1490 4730,1490 4743,1490 4768,1493 4775,1512 Z"/>
          </g>
         </g>
         <g class="com.sun.star.drawing.ClosedBezierShape">
          <g id="id10">
           <rect class="BoundingBox" stroke="none" fill="none" x="4840" y="1327" width="117" height="493"/>
           <path fill="rgb(0,0,0)" stroke="none" d="M 4955,1574 C 4955,1535 4949,1476 4923,1420 4894,1360 4850,1328 4846,1328 4843,1328 4840,1331 4840,1334 4840,1335 4840,1335 4850,1345 4898,1392 4926,1470 4926,1574 4926,1656 4907,1743 4847,1804 4840,1811 4840,1811 4840,1812 4840,1815 4843,1818 4846,1818 4850,1818 4895,1785 4924,1722 4949,1669 4955,1614 4955,1574 Z"/>
          </g>
         </g>
        </g>
       </g>
       <g class="Group">
        <g class="Group">
         <g class="com.sun.star.drawing.ClosedBezierShape">
          <g id="id11">
           <rect class="BoundingBox" stroke="none" fill="none" x="1667" y="1210" width="570" height="317"/>
           <path fill="rgb(255,255,255)" stroke="none" d="M 1952,1525 C 1857,1525 1762,1525 1668,1525 1668,1420 1668,1316 1668,1211 1857,1211 2046,1211 2235,1211 2235,1316 2235,1420 2235,1525 2141,1525 2046,1525 1952,1525 Z"/>
          </g>
         </g>
         <g class="com.sun.star.drawing.ClosedBezierShape">
          <g id="id12">
           <rect class="BoundingBox" stroke="none" fill="none" x="1712" y="1212" width="96" height="56"/>
           <path fill="rgb(0,0,0)" stroke="none" d="M 1760,1213 C 1744,1229 1729,1245 1713,1261 1715,1263 1718,1265 1720,1267 1733,1255 1746,1243 1760,1231 1773,1243 1787,1255 1801,1267 1803,1265 1805,1263 1807,1261 1791,1245 1775,1229 1760,1213 Z"/>
          </g>
         </g>
         <g class="com.sun.star.drawing.ClosedBezierShape">
          <g id="id13">
           <rect class="BoundingBox" stroke="none" fill="none" x="1659" y="1300" width="183" height="161"/>
           <path fill="rgb(0,0,0)" stroke="none" d="M 1773,1436 C 1777,1450 1789,1459 1804,1459 1817,1459 1825,1451 1830,1440 1836,1427 1841,1406 1841,1405 1841,1402 1838,1402 1837,1402 1833,1402 1833,1403 1832,1408 1827,1427 1820,1451 1805,1451 1798,1451 1795,1447 1795,1435 1795,1427 1799,1411 1802,1399 1805,1387 1808,1374 1811,1362 1812,1357 1816,1343 1817,1338 1819,1330 1823,1317 1823,1315 1823,1308 1818,1305 1812,1305 1811,1305 1802,1305 1799,1317 1792,1343 1777,1403 1772,1422 1772,1423 1758,1451 1732,1451 1714,1451 1711,1436 1711,1423 1711,1403 1720,1375 1730,1352 1734,1342 1736,1337 1736,1330 1736,1314 1724,1301 1707,1301 1673,1301 1660,1352 1660,1355 1660,1359 1664,1359 1665,1359 1668,1359 1668,1358 1670,1352 1679,1322 1692,1309 1706,1309 1709,1309 1714,1309 1714,1320 1714,1329 1711,1339 1708,1344 1696,1378 1688,1400 1688,1417 1688,1450 1712,1459 1731,1459 1754,1459 1767,1443 1773,1436 Z"/>
          </g>
         </g>
         <g class="com.sun.star.drawing.ClosedBezierShape">
          <g id="id14">
           <rect class="BoundingBox" stroke="none" fill="none" x="1885" y="1192" width="83" height="353"/>
           <path fill="rgb(0,0,0)" stroke="none" d="M 1966,1539 C 1966,1538 1966,1538 1960,1532 1918,1487 1906,1421 1906,1368 1906,1307 1920,1246 1962,1203 1966,1198 1966,1198 1966,1197 1966,1194 1965,1193 1963,1193 1959,1193 1929,1217 1908,1262 1890,1300 1886,1339 1886,1368 1886,1395 1890,1437 1909,1477 1930,1520 1959,1543 1963,1543 1965,1543 1966,1542 1966,1539 Z"/>
          </g>
         </g>
         <g class="com.sun.star.drawing.ClosedBezierShape">
          <g id="id15">
           <rect class="BoundingBox" stroke="none" fill="none" x="2005" y="1300" width="131" height="161"/>
           <path fill="rgb(0,0,0)" stroke="none" d="M 2124,1325 C 2114,1325 2107,1333 2107,1341 2107,1346 2110,1351 2118,1351 2126,1351 2134,1345 2134,1331 2134,1316 2119,1301 2092,1301 2046,1301 2033,1337 2033,1352 2033,1379 2059,1384 2069,1386 2088,1390 2106,1393 2106,1413 2106,1422 2098,1451 2056,1451 2051,1451 2024,1451 2016,1433 2029,1434 2038,1424 2038,1414 2038,1406 2032,1402 2025,1402 2016,1402 2005,1409 2005,1425 2005,1445 2025,1459 2055,1459 2112,1459 2126,1417 2126,1401 2126,1388 2119,1379 2115,1375 2105,1366 2095,1365 2080,1361 2067,1359 2053,1356 2053,1340 2053,1330 2062,1309 2092,1309 2101,1309 2119,1311 2124,1325 Z"/>
          </g>
         </g>
         <g class="com.sun.star.drawing.ClosedBezierShape">
          <g id="id16">
           <rect class="BoundingBox" stroke="none" fill="none" x="2171" y="1192" width="84" height="353"/>
           <path fill="rgb(0,0,0)" stroke="none" d="M 2253,1368 C 2253,1341 2249,1299 2230,1259 2209,1216 2178,1193 2175,1193 2173,1193 2171,1195 2171,1197 2171,1198 2171,1198 2178,1205 2212,1239 2232,1295 2232,1368 2232,1427 2219,1489 2176,1533 2171,1538 2171,1538 2171,1539 2171,1541 2173,1543 2175,1543 2178,1543 2210,1519 2231,1474 2249,1436 2253,1397 2253,1368 Z"/>
          </g>
         </g>
        </g>
       </g>
       <g class="Group">
        <g class="Group">
         <g class="com.sun.star.drawing.ClosedBezierShape">
          <g id="id17">
           <rect class="BoundingBox" stroke="none" fill="none" x="6416" y="1207" width="553" height="317"/>
           <path fill="rgb(255,255,255)" stroke="none" d="M 6692,1522 C 6600,1522 6508,1522 6417,1522 6417,1417 6417,1313 6417,1208 6600,1208 6784,1208 6967,1208 6967,1313 6967,1417 6967,1522 6875,1522 6783,1522 6692,1522 Z"/>
          </g>
         </g>
         <g class="com.sun.star.drawing.ClosedBezierShape">
          <g id="id18">
           <rect class="BoundingBox" stroke="none" fill="none" x="6463" y="1209" width="96" height="56"/>
           <path fill="rgb(0,0,0)" stroke="none" d="M 6511,1210 C 6495,1226 6480,1242 6464,1258 6466,1260 6468,1262 6470,1264 6484,1252 6497,1240 6511,1228 6524,1240 6537,1252 6551,1264 6553,1262 6555,1260 6558,1258 6542,1242 6526,1226 6511,1210 Z"/>
          </g>
         </g>
         <g class="com.sun.star.drawing.ClosedBezierShape">
          <g id="id19">
           <rect class="BoundingBox" stroke="none" fill="none" x="6408" y="1297" width="164" height="229"/>
           <path fill="rgb(0,0,0)" stroke="none" d="M 6570,1320 C 6571,1315 6571,1314 6571,1312 6571,1305 6566,1302 6561,1302 6557,1302 6552,1304 6549,1309 6548,1311 6545,1322 6544,1328 6541,1337 6539,1347 6537,1356 6531,1376 6526,1397 6521,1418 6519,1424 6504,1448 6481,1448 6463,1448 6460,1433 6460,1420 6460,1404 6465,1382 6477,1352 6483,1338 6484,1334 6484,1327 6484,1311 6473,1298 6456,1298 6422,1298 6409,1349 6409,1352 6409,1356 6413,1356 6414,1356 6417,1356 6417,1355 6419,1349 6429,1316 6443,1306 6455,1306 6457,1306 6463,1306 6463,1317 6463,1326 6460,1335 6457,1342 6443,1378 6437,1398 6437,1414 6437,1445 6459,1456 6480,1456 6494,1456 6505,1450 6515,1440 6511,1458 6507,1476 6492,1494 6483,1506 6470,1516 6454,1516 6449,1516 6433,1515 6427,1502 6433,1502 6437,1502 6442,1497 6446,1494 6449,1490 6449,1483 6449,1472 6440,1471 6436,1471 6428,1471 6417,1476 6417,1494 6417,1511 6432,1524 6454,1524 6490,1524 6526,1492 6536,1453 6547,1409 6558,1364 6570,1320 Z"/>
          </g>
         </g>
         <g class="com.sun.star.drawing.ClosedBezierShape">
          <g id="id20">
           <rect class="BoundingBox" stroke="none" fill="none" x="6617" y="1189" width="84" height="353"/>
           <path fill="rgb(0,0,0)" stroke="none" d="M 6699,1536 C 6699,1535 6699,1535 6693,1529 6650,1484 6639,1418 6639,1365 6639,1304 6652,1243 6694,1200 6699,1195 6699,1195 6699,1194 6699,1191 6697,1190 6695,1190 6693,1190 6661,1214 6641,1259 6623,1297 6618,1336 6618,1365 6618,1392 6622,1434 6642,1474 6663,1517 6693,1540 6695,1540 6697,1540 6699,1539 6699,1536 Z"/>
          </g>
         </g>
         <g class="com.sun.star.drawing.ClosedBezierShape">
          <g id="id21">
           <rect class="BoundingBox" stroke="none" fill="none" x="6737" y="1297" width="131" height="161"/>
           <path fill="rgb(0,0,0)" stroke="none" d="M 6856,1322 C 6846,1322 6839,1330 6839,1338 6839,1343 6843,1348 6850,1348 6858,1348 6866,1342 6866,1328 6866,1313 6851,1298 6825,1298 6778,1298 6765,1334 6765,1349 6765,1376 6791,1381 6801,1383 6820,1387 6838,1390 6838,1410 6838,1419 6830,1448 6788,1448 6783,1448 6756,1448 6748,1430 6761,1431 6770,1421 6770,1411 6770,1403 6764,1399 6757,1399 6748,1399 6737,1406 6737,1422 6737,1442 6757,1456 6787,1456 6844,1456 6858,1414 6858,1398 6858,1385 6851,1376 6847,1372 6838,1363 6827,1362 6812,1358 6799,1356 6785,1353 6785,1337 6785,1327 6794,1306 6825,1306 6833,1306 6851,1308 6856,1322 Z"/>
          </g>
         </g>
         <g class="com.sun.star.drawing.ClosedBezierShape">
          <g id="id22">
           <rect class="BoundingBox" stroke="none" fill="none" x="6903" y="1189" width="84" height="353"/>
           <path fill="rgb(0,0,0)" stroke="none" d="M 6985,1365 C 6985,1338 6981,1296 6962,1256 6941,1213 6910,1190 6907,1190 6905,1190 6903,1192 6903,1194 6903,1195 6903,1195 6910,1202 6944,1236 6964,1292 6964,1365 6964,1424 6951,1486 6908,1530 6903,1535 6903,1535 6903,1536 6903,1538 6905,1540 6907,1540 6910,1540 6942,1516 6963,1471 6981,1433 6985,1394 6985,1365 Z"/>
          </g>
         </g>
        </g>
       </g>
      </g>
     </g>
    </g>
   </g>
  </g>
 </g>
</svg>